<svg width="38" height="38" viewBox="0 0 38 38" fill="none" xmlns="http://www.w3.org/2000/svg">
<path d="M18.7718 17.9738C19.3038 17.9738 19.7218 18.3918 19.7218 18.9238C19.7218 19.4558 19.3038 19.8738 18.7718 19.8738C18.2398 19.8738 17.8218 19.4558 17.8218 18.9238C17.8218 18.3918 18.2398 17.9738 18.7718 17.9738ZM13.4518 17.9738C13.9838 17.9738 14.4018 18.3918 14.4018 18.9238C14.4018 19.4558 13.9838 19.8738 13.4518 19.8738C12.9198 19.8738 12.5018 19.4558 12.5018 18.9238C12.5018 18.3918 12.9198 17.9738 13.4518 17.9738ZM16.1118 13.0338C16.6438 13.0338 17.0618 13.4518 17.0618 13.9838C17.0618 14.5158 16.6438 14.9338 16.1118 14.9338C15.5798 14.9338 15.1618 14.5158 15.1618 13.9838C15.1618 13.4518 15.5798 13.0338 16.1118 13.0338ZM21.4318 13.0338C21.9638 13.0338 22.3818 13.4518 22.3818 13.9838C22.3818 14.5158 21.9638 14.9338 21.4318 14.9338C20.8998 14.9338 20.4818 14.5158 20.4818 13.9838C20.4818 13.4518 20.8998 13.0338 21.4318 13.0338ZM24.0918 17.9738C24.6238 17.9738 25.0418 18.3918 25.0418 18.9238C25.0418 19.4558 24.6238 19.8738 24.0918 19.8738C23.5598 19.8738 23.1418 19.4558 23.1418 18.9238C23.1418 18.3918 23.5598 17.9738 24.0918 17.9738ZM16.1118 22.5338C16.6438 22.5338 17.0618 22.9518 17.0618 23.4838C17.0618 24.0158 16.6438 24.4338 16.1118 24.4338C15.5798 24.4338 15.1618 24.0158 15.1618 23.4838C15.1618 22.9518 15.5798 22.5338 16.1118 22.5338ZM21.4318 22.5338C21.9638 22.5338 22.3818 22.9518 22.3818 23.4838C22.3818 24.0158 21.9638 24.4338 21.4318 24.4338C20.8998 24.4338 20.4818 24.0158 20.4818 23.4838C20.4818 22.9518 20.8998 22.5338 21.4318 22.5338ZM16.1118 7.33379C16.6438 7.33379 17.0618 7.75179 17.0618 8.28379C17.0618 8.81579 16.6438 9.23379 16.1118 9.23379C15.5798 9.23379 15.1618 8.81579 15.1618 8.28379C15.1618 7.75179 15.5798 7.33379 16.1118 7.33379ZM21.4318 7.33379C21.9638 7.33379 22.3818 7.75179 22.3818 8.28379C22.3818 8.81579 21.9638 9.23379 21.4318 9.23379C20.8998 9.23379 20.4818 8.81579 20.4818 8.28379C20.4818 7.75179 20.8998 7.33379 21.4318 7.33379ZM26.3718 9.99379C26.9038 9.99379 27.3218 10.4118 27.3218 10.9438C27.3218 11.4758 26.9038 11.8938 26.3718 11.8938C25.8398 11.8938 25.4218 11.4758 25.4218 10.9438C25.4218 10.4118 25.8398 9.99379 26.3718 9.99379ZM29.0318 14.9338C29.5638 14.9338 29.9818 15.3518 29.9818 15.8838C29.9818 16.4158 29.5638 16.8338 29.0318 16.8338C28.4998 16.8338 28.0818 16.4158 28.0818 15.8838C28.0818 15.3518 28.4998 14.9338 29.0318 14.9338ZM29.0318 20.6338C29.5638 20.6338 29.9818 21.0518 29.9818 21.5838C29.9818 22.1158 29.5638 22.5338 29.0318 22.5338C28.4998 22.5338 28.0818 22.1158 28.0818 21.5838C28.0818 21.0518 28.4998 20.6338 29.0318 20.6338ZM26.3718 25.5738C26.9038 25.5738 27.3218 25.9918 27.3218 26.5238C27.3218 27.0558 26.9038 27.4738 26.3718 27.4738C25.8398 27.4738 25.4218 27.0558 25.4218 26.5238C25.4218 25.9918 25.8398 25.5738 26.3718 25.5738ZM21.4318 28.2338C21.9638 28.2338 22.3818 28.6518 22.3818 29.1838C22.3818 29.7158 21.9638 30.1338 21.4318 30.1338C20.8998 30.1338 20.4818 29.7158 20.4818 29.1838C20.4818 28.6518 20.8998 28.2338 21.4318 28.2338ZM16.1118 28.2338C16.6438 28.2338 17.0618 28.6518 17.0618 29.1838C17.0618 29.7158 16.6438 30.1338 16.1118 30.1338C15.5798 30.1338 15.1618 29.7158 15.1618 29.1838C15.1618 28.6518 15.5798 28.2338 16.1118 28.2338ZM11.1718 25.5738C11.7038 25.5738 12.1218 25.9918 12.1218 26.5238C12.1218 27.0558 11.7038 27.4738 11.1718 27.4738C10.6398 27.4738 10.2218 27.0558 10.2218 26.5238C10.2218 25.9918 10.6398 25.5738 11.1718 25.5738ZM8.51182 20.6338C9.04382 20.6338 9.46182 21.0518 9.46182 21.5838C9.46182 22.1158 9.04382 22.5338 8.51182 22.5338C7.97982 22.5338 7.56182 22.1158 7.56182 21.5838C7.56182 21.0518 7.97982 20.6338 8.51182 20.6338ZM8.51182 14.9338C9.04382 14.9338 9.46182 15.3518 9.46182 15.8838C9.46182 16.4158 9.04382 16.8338 8.51182 16.8338C7.97982 16.8338 7.56182 16.4158 7.56182 15.8838C7.56182 15.3518 7.97982 14.9338 8.51182 14.9338ZM11.1718 9.99379C11.7038 9.99379 12.1218 10.4118 12.1218 10.9438C12.1218 11.4758 11.7038 11.8938 11.1718 11.8938C10.6398 11.8938 10.2218 11.4758 10.2218 10.9438C10.2218 10.4118 10.6398 9.99379 11.1718 9.99379ZM18.7718 1.63379C19.3038 1.63379 19.7218 2.05179 19.7218 2.58379C19.7218 3.11579 19.3038 3.53379 18.7718 3.53379C18.2398 3.53379 17.8218 3.11579 17.8218 2.58379C17.8218 2.05179 18.2398 1.63379 18.7718 1.63379ZM24.4718 2.77379C25.0038 2.77379 25.4218 3.19179 25.4218 3.72379C25.4218 4.25579 25.0038 4.67379 24.4718 4.67379C23.9398 4.67379 23.5218 4.25579 23.5218 3.72379C23.5218 3.19179 23.9398 2.77379 24.4718 2.77379ZM29.0318 5.43379C29.5638 5.43379 29.9818 5.85179 29.9818 6.38379C29.9818 6.91579 29.5638 7.33379 29.0318 7.33379C28.4998 7.33379 28.0818 6.91579 28.0818 6.38379C28.0818 5.85179 28.4998 5.43379 29.0318 5.43379ZM32.8318 9.99379C33.3638 9.99379 33.7818 10.4118 33.7818 10.9438C33.7818 11.4758 33.3638 11.8938 32.8318 11.8938C32.2998 11.8938 31.8818 11.4758 31.8818 10.9438C31.8818 10.4118 32.2998 9.99379 32.8318 9.99379ZM34.7318 14.9338C35.2638 14.9338 35.6818 15.3518 35.6818 15.8838C35.6818 16.4158 35.2638 16.8338 34.7318 16.8338C34.1998 16.8338 33.7818 16.4158 33.7818 15.8838C33.7818 15.3518 34.1998 14.9338 34.7318 14.9338ZM34.7318 20.6338C35.2638 20.6338 35.6818 21.0518 35.6818 21.5838C35.6818 22.1158 35.2638 22.5338 34.7318 22.5338C34.1998 22.5338 33.7818 22.1158 33.7818 21.5838C33.7818 21.0518 34.1998 20.6338 34.7318 20.6338ZM32.8318 25.9538C33.3638 25.9538 33.7818 26.3718 33.7818 26.9038C33.7818 27.4358 33.3638 27.8538 32.8318 27.8538C32.2998 27.8538 31.8818 27.4358 31.8818 26.9038C31.8818 26.3718 32.2998 25.9538 32.8318 25.9538ZM29.0318 30.1338C29.5638 30.1338 29.9818 30.5518 29.9818 31.0838C29.9818 31.6158 29.5638 32.0338 29.0318 32.0338C28.4998 32.0338 28.0818 31.6158 28.0818 31.0838C28.0818 30.5518 28.4998 30.1338 29.0318 30.1338ZM24.0918 33.1738C24.6238 33.1738 25.0418 33.5918 25.0418 34.1238C25.0418 34.6558 24.6238 35.0738 24.0918 35.0738C23.5598 35.0738 23.1418 34.6558 23.1418 34.1238C23.1418 33.5918 23.5598 33.1738 24.0918 33.1738ZM18.7718 33.9338C19.3038 33.9338 19.7218 34.3518 19.7218 34.8838C19.7218 35.4158 19.3038 35.8338 18.7718 35.8338C18.2398 35.8338 17.8218 35.4158 17.8218 34.8838C17.8218 34.3518 18.2398 33.9338 18.7718 33.9338ZM13.4518 33.1738C13.9838 33.1738 14.4018 33.5918 14.4018 34.1238C14.4018 34.6558 13.9838 35.0738 13.4518 35.0738C12.9198 35.0738 12.5018 34.6558 12.5018 34.1238C12.5018 33.5918 12.9198 33.1738 13.4518 33.1738ZM8.51182 30.1338C9.04382 30.1338 9.46182 30.5518 9.46182 31.0838C9.46182 31.6158 9.04382 32.0338 8.51182 32.0338C7.97982 32.0338 7.56182 31.6158 7.56182 31.0838C7.56182 30.5518 7.97982 30.1338 8.51182 30.1338ZM5.09182 25.9538C5.62382 25.9538 6.04182 26.3718 6.04182 26.9038C6.04182 27.4358 5.62382 27.8538 5.09182 27.8538C4.55982 27.8538 4.14182 27.4358 4.14182 26.9038C4.14182 26.3718 4.55982 25.9538 5.09182 25.9538ZM2.81182 20.6338C3.34382 20.6338 3.76182 21.0518 3.76182 21.5838C3.76182 22.1158 3.34382 22.5338 2.81182 22.5338C2.27982 22.5338 1.86182 22.1158 1.86182 21.5838C1.86182 21.0518 2.27982 20.6338 2.81182 20.6338ZM2.81182 14.9338C3.34382 14.9338 3.76182 15.3518 3.76182 15.8838C3.76182 16.4158 3.34382 16.8338 2.81182 16.8338C2.27982 16.8338 1.86182 16.4158 1.86182 15.8838C1.86182 15.3518 2.27982 14.9338 2.81182 14.9338ZM5.09182 9.99379C5.62382 9.99379 6.04182 10.4118 6.04182 10.9438C6.04182 11.4758 5.62382 11.8938 5.09182 11.8938C4.55982 11.8938 4.14182 11.4758 4.14182 10.9438C4.14182 10.4118 4.55982 9.99379 5.09182 9.99379ZM8.51182 5.43379C9.04382 5.43379 9.46182 5.85179 9.46182 6.38379C9.46182 6.91579 9.04382 7.33379 8.51182 7.33379C7.97982 7.33379 7.56182 6.91579 7.56182 6.38379C7.56182 5.85179 7.97982 5.43379 8.51182 5.43379ZM13.4518 2.77379C13.9838 2.77379 14.4018 3.19179 14.4018 3.72379C14.4018 4.25579 13.9838 4.67379 13.4518 4.67379C12.9198 4.67379 12.5018 4.25579 12.5018 3.72379C12.5018 3.19179 12.9198 2.77379 13.4518 2.77379Z" fill="#3F433E"/>
</svg>
